<svg xmlns="http://www.w3.org/2000/svg" width="16" height="16" viewBox="0 0 16 16">
  <!-- light-theme icon: dark strokes on transparent bg -->
  <rect x="0.5" y="0.5" width="15" height="15" rx="2.5" ry="2.5"
        fill="none" stroke="#3D3D3D" stroke-width="1.0"/>

  <line x1="3.90" y1="3.90" x2="1.23"  y2="1.23"  stroke="#3D3D3D" stroke-width="1.0" stroke-linecap="round"/>
  <line x1="7.00" y1="5.00" x2="7.83"  y2="-2.48" stroke="#3D3D3D" stroke-width="1.0" stroke-linecap="round"/>
  <line x1="12.10" y1="3.90" x2="14.77" y2="1.23"  stroke="#3D3D3D" stroke-width="1.0" stroke-linecap="round"/>
  <line x1="12.60" y1="8.00" x2="15.50" y2="8.00"  stroke="#3D3D3D" stroke-width="1.0" stroke-linecap="round"/>
  <line x1="11.75" y1="11.95" x2="14.50" y2="15.00" stroke="#3D3D3D" stroke-width="1.0" stroke-linecap="round"/>
  <line x1="9.00"  y1="10.50" x2="8.20"  y2="18.48" stroke="#3D3D3D" stroke-width="1.0" stroke-linecap="round"/>
  <line x1="3.71"  y1="12.29" x2="1.23"  y2="14.77" stroke="#3D3D3D" stroke-width="1.0" stroke-linecap="round"/>

  <!-- citrus glare ovals: 20% smaller -->
  <ellipse cx="4.6"  cy="1.8" rx="0.8" ry="1.2" fill="#3D3D3D"/>
  <ellipse cx="11.4" cy="1.8" rx="0.8" ry="1.2" fill="#3D3D3D"/>
  <ellipse cx="14.8" cy="5.0" rx="0.72" ry="1.04" fill="#3D3D3D"/>

  <!-- JJ as paths: thin outline, transparent interior -->
  <g fill="none" stroke="#3D3D3D" stroke-width="1.2" stroke-linecap="round" stroke-linejoin="round">
    <line x1="3.5" y1="5.0" x2="7.0" y2="5.0"/>
    <path d="M 6.0,5.0 V 9.5 Q 6.0,11.5 4.75,11.5 Q 3.5,11.5 3.5,10.5"/>
    <line x1="9.0" y1="5.0" x2="12.5" y2="5.0"/>
    <path d="M 11.5,5.0 V 9.5 Q 11.5,11.5 10.25,11.5 Q 9.0,11.5 9.0,10.5"/>
  </g>
</svg>